<?xml version="1.0" standalone="no"?><!DOCTYPE svg PUBLIC "-//W3C//DTD SVG 1.1//EN" "http://www.w3.org/Graphics/SVG/1.1/DTD/svg11.dtd"><svg t="1564984285522" class="icon" viewBox="0 0 1024 1024" version="1.1" xmlns="http://www.w3.org/2000/svg" p-id="1977" xmlns:xlink="http://www.w3.org/1999/xlink" width="200" height="200"><defs><style type="text/css"></style></defs><path d="M620.313 913.691 220.932 683.64 102.745 683.64c-19.437 0-35.248-15.826-35.248-35.263L67.497 375.666c0-19.451 15.812-35.269 35.248-35.269l118.186 0 399.382-230.087L620.313 913.691zM102.745 373.394c-1.24 0-2.257 1.023-2.257 2.271l0 272.712c0 1.214 1.03 2.257 2.257 2.257l127.016 0 357.547 205.961L587.308 167.398 229.761 373.394 102.745 373.394z" p-id="1978"></path><path d="M625.313 922.342 219.595 688.64l-116.85 0c-22.193 0-40.248-18.062-40.248-40.263L62.497 375.666c0-22.205 18.055-40.269 40.248-40.269l116.848 0 405.719-233.738L625.312 922.342zM102.745 345.396c-16.679 0-30.248 13.579-30.248 30.269l0 272.711c0 16.687 13.569 30.263 30.248 30.263l119.523 0 1.159 0.667 391.885 225.734L615.312 118.96 222.268 345.396 102.745 345.396zM592.308 865.245 228.424 655.634 102.745 655.634c-4.001 0-7.257-3.255-7.257-7.257L95.488 375.665c0-4.009 3.255-7.271 7.257-7.271l125.678 0 363.884-209.646L592.307 865.245zM105.488 645.634l125.609 0 1.159 0.667 350.051 201.644L582.307 176.05 231.098 378.394l-125.61 0L105.488 645.634z" p-id="1979"></path><path d="M208.857 356.891l32.992 0 0 310.245-32.992 0L208.857 356.891z" p-id="1980"></path><path d="M246.849 672.136l-42.992 0L203.857 351.891l42.992 0L246.849 672.136zM213.857 662.136l22.992 0L236.849 361.891l-22.992 0L213.857 662.136z" p-id="1981"></path><path d="M735.24 632.156l-14.373-29.704c37.843-18.28 61.342-55.602 61.342-97.431 0-41.834-23.499-79.171-61.313-97.437l14.33-29.712c48.578 23.442 79.989 73.353 79.989 127.148C815.215 559.63 784.564 608.347 735.24 632.156z" p-id="1982"></path><path d="M732.915 638.831l-18.728-38.705 4.505-2.176c36.095-17.436 58.517-53.044 58.517-92.929 0-39.897-22.411-75.508-58.488-92.934l-4.5-2.174 18.674-38.717 4.504 2.174c50.309 24.277 82.816 75.953 82.816 131.651 0 56.543-31.728 106.983-82.801 131.638L732.915 638.831zM727.501 604.683l10.026 20.72c44.967-23.697 72.688-69.375 72.688-120.381 0-50.219-28.374-96.93-72.698-120.388l-9.993 20.718c36.944 19.823 59.686 57.568 59.686 99.67C787.209 547.11 764.461 584.852 727.501 604.683z" p-id="1983"></path><path d="M791.067 762.231l-13.696-30.028c88.776-40.482 146.141-129.653 146.141-227.168 0-95.421-55.616-183.773-141.657-225.102l14.274-29.741c97.438 46.772 160.375 146.805 160.375 254.842C956.505 615.442 891.579 716.391 791.067 762.231z" p-id="1984"></path><path d="M788.593 768.855l-17.846-39.127 4.55-2.074c87-39.673 143.215-127.056 143.215-222.619 0-93.499-54.491-180.088-138.822-220.595l-4.506-2.164 18.602-38.755 4.508 2.164c99.146 47.593 163.211 149.394 163.211 259.35 0.001 112.358-66.085 215.1-168.361 261.745L788.593 768.855zM783.975 734.633l9.548 20.934c96.14-45.962 157.982-143.747 157.981-250.531 0-104.462-59.913-201.303-153.051-248.13l-9.949 20.73c85.216 43.043 140.008 131.748 140.008 227.399C928.512 602.835 871.944 692.405 783.975 734.633z" p-id="1985"></path></svg>